<?xml version="1.0" encoding="UTF-8" standalone="no"?>
<!DOCTYPE svg PUBLIC "-//W3C//DTD SVG 20010904//EN"
              "http://www.w3.org/TR/2001/REC-SVG-20010904/DTD/svg10.dtd">

<svg xmlns="http://www.w3.org/2000/svg"
     width="22.2222in" height="14.8194in"
     viewBox="0 0 1600 1067">
  <path id="GLEAP #2"
        fill="none" stroke="black" stroke-width="1"
        d="M 495.66,529.42
           C 484.97,583.91 448.05,614.52 396.64,614.52
             341.11,614.52 307.12,577.31 307.12,522.97
             307.12,459.83 345.66,396.11 419.48,396.11
             470.47,396.11 503.56,427.31 504.30,467.45
             504.30,468.33 504.30,469.50 504.30,470.38
             504.30,470.38 467.09,470.38 467.09,470.38
             465.48,445.62 447.17,429.08 418.91,429.08
             368.66,429.08 345.80,476.39 345.80,521.50
             345.80,557.55 364.55,581.70 398.98,581.70
             428.28,581.70 451.42,562.95 457.42,535.12
             457.42,535.12 458.45,529.86 458.45,529.86
             458.45,529.86 407.62,529.86 407.62,529.86
             407.62,529.86 413.77,500.41 413.77,500.41
             413.77,500.41 501.66,500.41 501.66,500.41
             501.66,500.41 495.66,529.42 495.66,529.42 Z
           M 644.25,611.00
           C 644.25,611.00 509.48,611.00 509.48,611.00
             509.48,611.00 554.45,399.62 554.45,399.62
             554.45,399.62 592.55,399.62 592.55,399.62
             592.55,399.62 554.59,577.91 554.59,577.91
             554.59,577.91 651.14,577.91 651.14,577.91
             651.14,577.91 644.25,611.00 644.25,611.00 Z
           M 807.45,611.00
           C 807.45,611.00 670.48,611.00 670.48,611.00
             670.48,611.00 715.45,399.62 715.45,399.62
             715.45,399.62 852.27,399.62 852.27,399.62
             852.27,399.62 845.53,432.30 845.53,432.30
             845.53,432.30 746.80,432.30 746.80,432.30
             746.80,432.30 734.64,488.41 734.64,488.41
             734.64,488.41 827.95,488.41 827.95,488.41
             827.95,488.41 821.52,519.16 821.52,519.16
             821.52,519.16 728.20,519.16 728.20,519.16
             728.20,519.16 715.45,578.34 715.45,578.34
             715.45,578.34 814.03,578.34 814.03,578.34
             814.03,578.34 807.45,611.00 807.45,611.00 Z
           M 910.36,527.08
           C 910.36,527.08 970.27,527.08 970.27,527.08
             970.27,527.08 959.42,438.59 959.42,438.59
             959.42,438.59 958.55,438.59 958.55,438.59
             958.55,438.59 910.36,527.08 910.36,527.08 Z
           M 973.20,556.95
           C 973.20,556.95 894.97,556.95 894.97,556.95
             894.97,556.95 865.09,611.00 865.09,611.00
             865.09,611.00 824.38,611.00 824.38,611.00
             824.38,611.00 944.92,399.62 944.92,399.62
             944.92,399.62 987.84,399.62 987.84,399.62
             987.84,399.62 1017.00,611.00 1017.00,611.00
             1017.00,611.00 979.64,611.00 979.64,611.00
             979.64,611.00 973.20,556.95 973.20,556.95 Z
           M 1160.62,399.62
           C 1199.44,399.62 1226.69,423.22 1226.69,459.83
             1226.69,510.67 1189.34,541.72 1136.89,541.72
             1136.89,541.72 1092.52,541.72 1092.52,541.72
             1092.52,541.72 1077.72,611.00 1077.72,611.00
             1077.72,611.00 1039.62,611.00 1039.62,611.00
             1039.62,611.00 1084.45,399.62 1084.45,399.62
             1084.45,399.62 1160.62,399.62 1160.62,399.62 Z
           M 1098.95,510.38
           C 1098.95,510.38 1136.02,510.38 1136.02,510.38
             1167.66,510.38 1188.17,492.50 1188.17,463.20
             1188.17,442.55 1173.81,431.27 1150.67,431.27
             1150.67,431.27 1115.95,431.27 1115.95,431.27
             1115.95,431.27 1098.95,510.38 1098.95,510.38 Z" />
</svg>
